<?xml version="1.0" encoding="UTF-8"?>
<svg xmlns="http://www.w3.org/2000/svg" xmlns:xlink="http://www.w3.org/1999/xlink" width="375pt" height="374.999991pt" viewBox="0 0 375 374.999991" version="1.2">
<defs>
<clipPath id="clip1">
  <path d="M 4.328125 4.328125 L 374.664062 4.328125 L 374.664062 374.664062 L 4.328125 374.664062 Z M 4.328125 4.328125 "/>
</clipPath>
</defs>
<g id="surface1">
<g clip-path="url(#clip1)" clip-rule="nonzero">
<path style=" stroke:none;fill-rule:nonzero;fill:rgb(0%,46.669006%,70.979309%);fill-opacity:1;" d="M 59.878906 4.328125 L 319.113281 4.328125 C 320.933594 4.328125 322.746094 4.417969 324.558594 4.59375 C 326.367188 4.773438 328.164062 5.039062 329.949219 5.394531 C 331.734375 5.75 333.496094 6.191406 335.238281 6.71875 C 336.980469 7.246094 338.691406 7.859375 340.371094 8.554688 C 342.050781 9.25 343.695312 10.027344 345.296875 10.886719 C 346.902344 11.742188 348.460938 12.679688 349.976562 13.6875 C 351.488281 14.699219 352.945312 15.78125 354.351562 16.9375 C 355.757812 18.089844 357.105469 19.3125 358.390625 20.597656 C 359.679688 21.882812 360.898438 23.230469 362.054688 24.636719 C 363.207031 26.042969 364.289062 27.503906 365.300781 29.015625 C 366.3125 30.527344 367.246094 32.085938 368.105469 33.691406 C 368.960938 35.296875 369.738281 36.9375 370.433594 38.617188 C 371.128906 40.300781 371.742188 42.011719 372.269531 43.75 C 372.800781 45.492188 373.242188 47.253906 373.59375 49.039062 C 373.949219 50.824219 374.21875 52.621094 374.394531 54.433594 C 374.574219 56.242188 374.664062 58.058594 374.664062 59.878906 L 374.664062 319.113281 C 374.664062 320.933594 374.574219 322.746094 374.394531 324.558594 C 374.21875 326.367188 373.949219 328.164062 373.59375 329.949219 C 373.242188 331.734375 372.800781 333.496094 372.269531 335.238281 C 371.742188 336.980469 371.128906 338.691406 370.433594 340.371094 C 369.738281 342.050781 368.960938 343.695312 368.105469 345.296875 C 367.246094 346.902344 366.3125 348.460938 365.300781 349.976562 C 364.289062 351.488281 363.207031 352.945312 362.054688 354.351562 C 360.898438 355.757812 359.679688 357.105469 358.390625 358.390625 C 357.105469 359.679688 355.757812 360.898438 354.351562 362.054688 C 352.945312 363.207031 351.488281 364.289062 349.972656 365.300781 C 348.460938 366.3125 346.902344 367.246094 345.296875 368.105469 C 343.695312 368.960938 342.050781 369.738281 340.371094 370.433594 C 338.691406 371.128906 336.980469 371.742188 335.238281 372.269531 C 333.496094 372.800781 331.734375 373.242188 329.949219 373.59375 C 328.164062 373.949219 326.367188 374.21875 324.558594 374.394531 C 322.746094 374.574219 320.933594 374.664062 319.113281 374.664062 L 59.878906 374.664062 C 58.058594 374.664062 56.242188 374.574219 54.433594 374.394531 C 52.621094 374.21875 50.824219 373.949219 49.039062 373.59375 C 47.253906 373.242188 45.492188 372.800781 43.75 372.269531 C 42.011719 371.742188 40.300781 371.128906 38.617188 370.433594 C 36.9375 369.738281 35.296875 368.960938 33.691406 368.105469 C 32.085938 367.246094 30.527344 366.3125 29.015625 365.300781 C 27.503906 364.289062 26.042969 363.207031 24.636719 362.054688 C 23.230469 360.898438 21.882812 359.679688 20.597656 358.390625 C 19.3125 357.105469 18.089844 355.757812 16.9375 354.351562 C 15.78125 352.945312 14.699219 351.488281 13.6875 349.972656 C 12.679688 348.460938 11.742188 346.902344 10.886719 345.296875 C 10.027344 343.695312 9.25 342.050781 8.554688 340.371094 C 7.859375 338.691406 7.246094 336.980469 6.71875 335.238281 C 6.191406 333.496094 5.75 331.734375 5.394531 329.949219 C 5.039062 328.164062 4.773438 326.367188 4.59375 324.558594 C 4.417969 322.746094 4.328125 320.933594 4.328125 319.113281 L 4.328125 59.878906 C 4.328125 58.058594 4.417969 56.242188 4.59375 54.433594 C 4.773438 52.621094 5.039062 50.824219 5.394531 49.039062 C 5.75 47.253906 6.191406 45.492188 6.71875 43.75 C 7.246094 42.011719 7.859375 40.300781 8.554688 38.617188 C 9.25 36.9375 10.027344 35.296875 10.886719 33.691406 C 11.742188 32.085938 12.679688 30.527344 13.6875 29.015625 C 14.699219 27.503906 15.78125 26.042969 16.9375 24.636719 C 18.089844 23.230469 19.3125 21.882812 20.597656 20.597656 C 21.882812 19.3125 23.230469 18.089844 24.636719 16.9375 C 26.042969 15.78125 27.503906 14.699219 29.015625 13.6875 C 30.527344 12.679688 32.085938 11.742188 33.691406 10.886719 C 35.296875 10.027344 36.9375 9.25 38.617188 8.554688 C 40.300781 7.859375 42.011719 7.246094 43.75 6.71875 C 45.492188 6.191406 47.253906 5.75 49.039062 5.394531 C 50.824219 5.039062 52.621094 4.773438 54.433594 4.59375 C 56.242188 4.417969 58.058594 4.328125 59.878906 4.328125 Z M 59.878906 4.328125 "/>
</g>
<path style=" stroke:none;fill-rule:nonzero;fill:rgb(100%,100%,100%);fill-opacity:1;" d="M 133.800781 104.144531 C 133.800781 105.019531 133.757812 105.894531 133.671875 106.765625 C 133.585938 107.640625 133.457031 108.503906 133.285156 109.363281 C 133.113281 110.226562 132.902344 111.074219 132.648438 111.914062 C 132.394531 112.75 132.097656 113.574219 131.761719 114.386719 C 131.425781 115.195312 131.054688 115.988281 130.640625 116.761719 C 130.226562 117.53125 129.777344 118.285156 129.289062 119.011719 C 128.800781 119.742188 128.28125 120.445312 127.726562 121.121094 C 127.167969 121.800781 126.582031 122.449219 125.960938 123.066406 C 125.339844 123.6875 124.691406 124.277344 124.015625 124.832031 C 123.335938 125.386719 122.632812 125.910156 121.90625 126.394531 C 121.175781 126.882812 120.425781 127.332031 119.652344 127.746094 C 118.878906 128.160156 118.089844 128.535156 117.277344 128.871094 C 116.46875 129.203125 115.644531 129.5 114.804688 129.753906 C 113.96875 130.007812 113.117188 130.222656 112.257812 130.390625 C 111.398438 130.5625 110.53125 130.691406 109.660156 130.777344 C 108.789062 130.863281 107.914062 130.90625 107.039062 130.90625 C 106.160156 130.90625 105.285156 130.863281 104.414062 130.777344 C 103.542969 130.691406 102.675781 130.5625 101.816406 130.390625 C 100.957031 130.222656 100.105469 130.007812 99.269531 129.753906 C 98.429688 129.5 97.605469 129.203125 96.796875 128.871094 C 95.984375 128.535156 95.195312 128.160156 94.421875 127.746094 C 93.648438 127.332031 92.898438 126.882812 92.167969 126.394531 C 91.441406 125.910156 90.738281 125.386719 90.058594 124.832031 C 89.382812 124.277344 88.734375 123.6875 88.113281 123.066406 C 87.492188 122.449219 86.90625 121.800781 86.347656 121.121094 C 85.792969 120.445312 85.273438 119.742188 84.785156 119.011719 C 84.296875 118.285156 83.847656 117.53125 83.433594 116.761719 C 83.023438 115.988281 82.648438 115.195312 82.3125 114.386719 C 81.976562 113.574219 81.679688 112.75 81.425781 111.914062 C 81.171875 111.074219 80.960938 110.226562 80.789062 109.363281 C 80.617188 108.503906 80.488281 107.640625 80.402344 106.765625 C 80.316406 105.894531 80.273438 105.019531 80.273438 104.144531 C 80.273438 103.265625 80.316406 102.394531 80.402344 101.519531 C 80.488281 100.648438 80.617188 99.78125 80.789062 98.921875 C 80.960938 98.0625 81.171875 97.214844 81.425781 96.375 C 81.679688 95.535156 81.976562 94.710938 82.3125 93.902344 C 82.648438 93.09375 83.023438 92.300781 83.433594 91.527344 C 83.847656 90.753906 84.296875 90.003906 84.785156 89.277344 C 85.273438 88.546875 85.792969 87.84375 86.347656 87.167969 C 86.90625 86.488281 87.492188 85.839844 88.113281 85.21875 C 88.734375 84.601562 89.382812 84.011719 90.058594 83.457031 C 90.738281 82.898438 91.441406 82.378906 92.167969 81.890625 C 92.898438 81.40625 93.648438 80.953125 94.421875 80.542969 C 95.195312 80.128906 95.984375 79.753906 96.796875 79.417969 C 97.605469 79.082031 98.429688 78.789062 99.269531 78.535156 C 100.105469 78.28125 100.957031 78.066406 101.816406 77.894531 C 102.675781 77.726562 103.542969 77.597656 104.414062 77.511719 C 105.285156 77.425781 106.160156 77.382812 107.039062 77.382812 C 107.914062 77.382812 108.789062 77.425781 109.660156 77.511719 C 110.53125 77.597656 111.398438 77.726562 112.257812 77.894531 C 113.117188 78.066406 113.96875 78.28125 114.804688 78.535156 C 115.644531 78.789062 116.46875 79.082031 117.277344 79.417969 C 118.089844 79.753906 118.878906 80.128906 119.652344 80.542969 C 120.425781 80.953125 121.175781 81.40625 121.90625 81.890625 C 122.632812 82.378906 123.335938 82.898438 124.015625 83.457031 C 124.691406 84.011719 125.339844 84.601562 125.960938 85.21875 C 126.582031 85.839844 127.167969 86.488281 127.726562 87.167969 C 128.28125 87.84375 128.800781 88.546875 129.289062 89.277344 C 129.777344 90.003906 130.226562 90.753906 130.640625 91.527344 C 131.054688 92.300781 131.425781 93.09375 131.761719 93.902344 C 132.097656 94.710938 132.394531 95.535156 132.648438 96.375 C 132.902344 97.214844 133.113281 98.0625 133.285156 98.921875 C 133.457031 99.78125 133.585938 100.648438 133.671875 101.519531 C 133.757812 102.394531 133.800781 103.265625 133.800781 104.144531 Z M 133.800781 104.144531 "/>
<path style="fill-rule:nonzero;fill:rgb(100%,100%,100%);fill-opacity:1;stroke-width:66;stroke-linecap:butt;stroke-linejoin:miter;stroke:rgb(100%,100%,100%);stroke-opacity:1;stroke-miterlimit:4;" d="M 244.001713 193.998476 L 244.001713 392.002463 M 142.002442 193.998476 L 142.002442 392.002463 " transform="matrix(0.723312,0,0,0.723312,4.326927,4.326923)"/>
<path style=" stroke:none;fill-rule:nonzero;fill:rgb(100%,100%,100%);fill-opacity:1;" d="M 203.960938 208.300781 C 203.960938 193.835938 213.363281 179.367188 230 179.367188 C 247.359375 179.367188 253.871094 192.386719 253.871094 211.917969 L 253.871094 287.867188 L 301.609375 287.867188 L 301.609375 206.132812 C 301.609375 162.007812 278.460938 141.757812 246.636719 141.757812 C 222.042969 141.757812 209.746094 155.5 203.960938 164.902344 "/>
</g>
</svg>
